<?xml version="1.0" standalone="no"?>
<!DOCTYPE svg PUBLIC "-//W3C//DTD SVG 20010904//EN"
 "http://www.w3.org/TR/2001/REC-SVG-20010904/DTD/svg10.dtd">
<svg version="1.0" xmlns="http://www.w3.org/2000/svg"
 width="1200.000000pt" height="800.000000pt" viewBox="0 0 1200.000000 800.000000"
 preserveAspectRatio="xMidYMid meet">

<g transform="translate(0.000000,800.000000) scale(0.100000,-0.100000)"
fill="#000000" stroke="none">
<path d="M0 4000 l0 -4000 6000 0 6000 0 0 4000 0 4000 -6000 0 -6000 0 0
-4000z m6163 1902 c87 -268 208 -639 268 -824 l110 -338 869 -2 869 -3 -695
-504 c-383 -277 -698 -510 -701 -517 -2 -6 115 -380 262 -829 146 -450 265
-818 263 -820 -2 -1 -115 80 -253 180 -630 459 -1140 828 -1150 831 -5 2 -325
-225 -710 -505 -385 -279 -701 -507 -703 -506 -2 2 117 370 263 820 147 449
264 823 262 829 -3 7 -202 156 -444 331 -241 175 -553 402 -694 504 l-257 186
868 3 869 2 110 338 c60 185 181 556 268 824 87 269 160 488 163 488 3 0 76
-219 163 -488z"/>
</g>
</svg>
